<svg width="550" height="550" viewBox="0 0 550 550" fill="none" xmlns="http://www.w3.org/2000/svg">
<path d="M537.085 275C537.085 420.677 419.403 539 273.956 539C128.509 539 10.8262 420.677 10.8262 275C10.8262 129.323 128.511 11 273.956 11C419.403 11 537.085 129.323 537.085 275Z" fill="#DF76A1" stroke="white" stroke-width="10"/>
<path d="M268.504 424.6C352.217 424.6 420.079 355.651 420.079 270.6C420.079 185.548 352.217 116.6 268.504 116.6C184.792 116.6 116.93 185.548 116.93 270.6C116.93 355.651 184.792 424.6 268.504 424.6Z" fill="#1974AD" stroke="white" stroke-width="10"/>
<path d="M131.815 200.199H409.251L417.59 243.099L415.412 314.049L399.217 349.799H135.873L123.011 314.049L121.677 243.099L131.815 200.199ZM144.376 129.493L160.746 127.986L159.763 137.125L143.553 138.478L144.376 129.493ZM142.785 108.028L144.075 109.405C146.509 112.001 148.337 114.685 149.556 117.451C150.777 120.185 151.414 122.922 151.468 125.657C151.528 128.337 151.021 130.999 149.98 133.462C148.919 135.944 147.315 138.221 145.171 140.295C143.012 142.385 140.678 143.914 138.173 144.887C135.693 145.823 133.045 146.215 130.405 146.037C127.731 145.835 125.074 145.054 122.428 143.697C119.787 142.311 117.247 140.315 114.811 137.717L113.52 136.342C111.084 133.744 109.25 131.069 108.013 128.316C106.794 125.551 106.151 122.823 106.08 120.132C106.003 117.451 106.512 114.785 107.57 112.327C108.631 109.817 110.242 107.515 112.403 105.428C114.546 103.353 116.87 101.846 119.375 100.904C121.848 99.9376 124.502 99.5438 127.144 99.7515C129.816 99.9253 132.482 100.698 135.141 102.07C137.802 103.443 140.349 105.43 142.785 108.028ZM135.873 117.338L134.539 115.915C132.965 114.234 131.434 112.897 129.949 111.902C128.461 110.879 127.034 110.197 125.668 109.858C124.299 109.522 123.004 109.528 121.785 109.876C120.566 110.195 119.442 110.853 118.416 111.845C117.344 112.881 116.623 114.012 116.251 115.233C115.861 116.439 115.807 117.737 116.088 119.127C116.37 120.517 116.976 121.989 117.911 123.549C118.847 125.076 120.101 126.68 121.677 128.36L123.011 129.784C124.57 131.449 126.086 132.8 127.558 133.841C129.03 134.85 130.449 135.539 131.815 135.909C133.197 136.261 134.5 136.276 135.717 135.957C136.951 135.625 138.105 134.938 139.177 133.902C140.204 132.908 140.903 131.801 141.278 130.58C141.65 129.359 141.689 128.046 141.395 126.64C141.113 125.219 140.513 123.736 139.593 122.196C138.675 120.623 137.434 119.004 135.873 117.338ZM164.414 69.1011L174.107 63.5351L188.952 90.2123C190.721 93.3935 191.568 96.4603 191.488 99.4193C191.401 102.356 190.49 105.065 188.757 107.54C187.025 110.017 184.567 112.168 181.382 113.999C178.236 115.807 175.152 116.837 172.136 117.09C169.137 117.332 166.355 116.744 163.795 115.328C161.24 113.882 159.079 111.57 157.31 108.391L142.464 81.7115L152.182 76.1279L167.03 102.807C167.966 104.49 168.97 105.727 170.042 106.519C171.103 107.291 172.229 107.656 173.42 107.614C174.611 107.57 175.861 107.174 177.166 106.424C178.494 105.663 179.472 104.779 180.102 103.775C180.735 102.77 180.99 101.613 180.867 100.299C180.733 98.9705 180.198 97.4635 179.262 95.7805L164.414 69.1011ZM201.628 54.0663L216.288 98.5613L205.758 102.141L191.098 57.6457L201.628 54.0663ZM244.894 45.2531L251.195 91.7391L240.165 93.2791L233.864 46.7975L244.894 45.2553V45.2531ZM258.657 43.3281L259.829 51.9807L221.589 57.3311L220.415 48.6785L258.657 43.3281ZM297.066 46.0891L292.775 92.8083L281.69 91.7567L285.982 45.0375L297.066 46.0891ZM310.901 47.4003L310.102 56.0969L271.667 52.4515L272.466 43.7571L310.901 47.4003ZM344.821 98.0927L342.192 106.374L318.767 98.6955L321.396 90.4147L344.821 98.0927ZM336.718 55.2785L322.542 99.9341L311.944 96.4603L326.123 51.8047L336.718 55.2785ZM347.725 78.4555L345.183 86.4613L324.776 79.7733L327.316 71.7675L347.725 78.4555ZM356.462 61.7487L353.822 70.0603L330.307 62.3537L332.946 54.0399L356.462 61.7487ZM370.799 68.9933L386.42 78.4313C389.473 80.2793 391.857 82.3429 393.57 84.6265C395.282 86.9145 396.218 89.3279 396.376 91.8733C396.553 94.4297 395.865 97.0367 394.308 99.6965C392.957 102.007 391.474 103.72 389.856 104.845C388.3 105.942 386.509 106.646 384.631 106.897C382.688 107.133 380.722 107.07 378.798 106.71L374.61 106.618L361.496 98.6933L365.836 91.1539L375.541 97.0191C376.758 97.7539 377.897 98.1411 378.956 98.1829C380.015 98.2225 380.982 97.9563 381.857 97.3865C382.762 96.8079 383.548 95.9455 384.22 94.8015C384.9 93.6377 385.274 92.5135 385.343 91.4311C385.417 90.3672 385.159 89.3066 384.607 88.3995C384.068 87.4733 383.206 86.6527 382.026 85.9399L375.974 82.2813L356.761 115.105L347.192 109.324L370.799 68.9955V68.9933ZM368.921 122.453L370.582 99.3093L380.757 105.381L379.415 128.231L379.172 128.646L368.921 122.451V122.453ZM409.455 141.492C409.922 141.02 410.301 140.466 410.576 139.858C410.848 139.218 410.955 138.518 410.886 137.825C410.832 137.053 410.594 136.098 410.176 134.965C409.786 133.83 409.171 132.441 408.327 130.796C407.36 128.901 406.488 126.958 405.713 124.975C404.997 123.116 404.49 121.181 404.202 119.206C403.948 117.387 404.053 115.534 404.511 113.757C404.981 112.003 405.938 110.371 407.385 108.862C408.77 107.416 410.334 106.429 412.077 105.905C413.864 105.361 415.75 105.241 417.59 105.553C419.539 105.861 421.492 106.565 423.452 107.663C425.424 108.745 427.328 110.193 429.162 112.006C431.585 114.404 433.308 116.947 434.332 119.637C435.385 122.328 435.681 124.975 435.222 127.579C434.794 130.182 433.562 132.547 431.526 134.672L423.594 126.827C424.404 125.98 424.946 125.06 425.216 124.068C425.503 123.076 425.481 122.018 425.153 121.039C424.827 119.996 424.147 118.964 423.116 117.946C422.115 116.956 421.128 116.278 420.152 115.911C419.175 115.545 418.261 115.451 417.41 115.631C416.595 115.783 415.848 116.191 415.273 116.797C414.796 117.287 414.476 117.912 414.355 118.59C414.263 119.366 414.304 120.152 414.476 120.913C414.667 121.791 414.978 122.759 415.412 123.817C415.86 124.889 416.405 126.044 417.049 127.28C418.261 129.59 419.21 131.77 419.896 133.827C420.611 135.884 421.011 137.823 421.093 139.646C421.219 141.391 420.975 143.143 420.377 144.783C419.801 146.4 418.835 147.918 417.477 149.337C416.031 150.844 414.461 151.898 412.763 152.499C411.052 153.101 409.225 153.282 407.432 153.027C405.59 152.765 403.719 152.098 401.82 151.031C399.923 149.964 398.05 148.515 396.201 146.686C394.505 145.011 393.025 143.125 391.796 141.072C390.617 139.081 389.77 136.906 389.289 134.635C388.839 132.417 388.901 130.123 389.468 127.934C390.066 125.707 391.318 123.6 393.221 121.613L401.22 129.526C400.278 130.512 399.609 131.471 399.217 132.402C398.827 133.335 398.682 134.256 398.784 135.165C398.901 136.06 399.234 136.96 399.784 137.864C400.434 138.856 401.19 139.771 402.04 140.592C403.056 141.596 404.015 142.258 404.916 142.579C405.832 142.887 406.67 142.935 407.43 142.726C408.201 142.506 408.9 142.08 409.455 141.492ZM165.746 454.845L155.147 449.36L158.399 442.725L166.993 447.171C168.537 447.972 169.858 448.438 170.956 448.57C172.06 448.685 172.991 448.504 173.754 448.029C174.533 447.565 175.181 446.815 175.698 445.781C176.294 444.595 176.556 443.526 176.488 442.573C176.419 441.621 175.995 440.738 175.215 439.926C174.466 439.104 173.355 438.312 171.885 437.553L167.024 435.036L149.967 469.065L140.046 463.933L161.004 422.122L175.787 429.769C178.331 431.087 180.481 432.499 182.24 434.013C184.007 435.505 185.347 437.091 186.261 438.769C187.194 440.459 187.664 442.221 187.668 444.056C187.686 445.871 187.203 447.756 186.224 449.708C185.401 451.374 184.211 452.826 182.746 453.949C181.283 455.071 179.477 455.668 177.329 455.738C175.209 455.8 172.699 455.102 169.798 453.65L165.746 454.845ZM156.439 472.416L143.833 465.893L151.113 459.894L160.326 464.661C161.682 465.363 162.873 465.715 163.893 465.713C164.943 465.7 165.824 465.433 166.539 464.91C167.279 464.377 167.87 463.671 168.312 462.791C168.849 461.717 169.135 460.697 169.172 459.727C169.23 458.782 168.971 457.845 168.438 457.069C167.905 456.239 167.009 455.498 165.746 454.845L157.407 450.531L160.775 443.955L170.752 449.116L171.746 452.957C174.555 454.266 176.532 455.784 177.684 457.513C178.853 459.251 179.416 461.038 179.375 462.872C179.343 464.67 178.908 466.437 178.104 468.038C176.733 470.775 175.001 472.761 172.911 473.996C170.841 475.239 168.427 475.725 165.666 475.454C162.907 475.184 159.83 474.169 156.439 472.416ZM215.43 445.818L201.821 490.656L191.211 487.332L204.822 442.494L215.432 445.818H215.43ZM251.26 452.924L245.202 499.441L234.165 497.956L240.224 451.439L251.26 452.924ZM265.034 454.776L263.906 463.434L225.638 458.288L226.766 449.631L265.034 454.776ZM295.202 453.083L298.649 499.874L287.545 500.717L284.1 453.927L295.202 453.083ZM309.058 452.029L309.699 460.738L271.203 463.665L270.562 454.955L309.058 452.029ZM357.772 478.294L360.076 486.676L336.367 493.402L334.064 485.022L357.772 478.294ZM327.764 447.125L340.187 492.319L329.464 495.362L317.042 450.167L327.764 447.125ZM349.529 460.29L351.757 468.392L331.104 474.251L328.878 466.15L349.529 460.29ZM347.744 441.458L350.057 449.868L326.257 456.62L323.947 448.209L347.744 441.458ZM355.299 438.576L371.468 430.143C374.629 428.493 377.617 427.538 380.432 427.279C383.247 427.017 385.759 427.494 387.966 428.711C390.192 429.917 392 431.894 393.39 434.647C394.598 437.036 395.241 439.225 395.317 441.213C395.408 443.136 395.044 445.053 394.256 446.804C393.42 448.6 392.323 450.258 391.002 451.723L388.698 455.28L375.125 462.36L371.143 454.618L381.188 449.38C382.448 448.722 383.377 447.948 383.973 447.059C384.57 446.168 384.863 445.193 384.85 444.137C384.85 443.051 384.549 441.915 383.949 440.732C383.34 439.526 382.604 438.607 381.736 437.973C380.887 437.345 379.867 437.004 378.817 436.996C377.758 436.97 376.617 437.273 375.394 437.911L369.129 441.178L386.296 475.153L376.392 480.318L355.299 438.576ZM398.881 468.588L380.467 454.865L390.934 449.331L409.275 462.624L409.491 463.055L398.881 468.588Z" fill="white"/>
<path d="M227.99 309.754L258.038 333.967L241.904 347.803L212.373 323.59L227.99 309.754ZM259.296 270.878V275.315C259.296 283.686 258.138 291.206 255.819 297.872C253.547 304.489 250.293 310.154 246.049 314.867C241.905 319.492 236.832 323.159 231.173 325.62C225.45 328.076 219.133 329.305 212.226 329.305C205.268 329.305 198.902 328.076 193.129 325.62C187.455 323.148 182.36 319.483 178.18 314.867C173.986 310.154 170.731 304.489 168.41 297.872C166.141 291.206 165.006 283.686 165.006 275.315V270.878C165.006 262.507 166.141 254.987 168.41 248.319C170.729 241.651 173.962 235.988 178.106 231.324C182.223 226.668 187.303 222.997 192.982 220.573C198.755 218.065 205.119 216.811 212.076 216.811C218.986 216.811 225.3 218.065 231.023 220.573C236.732 222.982 241.84 226.655 245.975 231.324C250.217 235.988 253.5 241.651 255.819 248.319C258.138 254.987 259.296 262.507 259.296 270.878ZM232.875 275.315V270.728C232.875 265.314 232.405 260.551 231.467 256.439C230.579 252.279 229.248 248.796 227.472 245.987C225.694 243.18 223.499 241.074 220.885 239.671C218.319 238.219 215.385 237.491 212.076 237.491C208.623 237.491 205.613 238.219 203.047 239.671C200.483 241.074 198.335 243.18 196.609 245.987C194.881 248.796 193.576 252.279 192.686 256.439C191.848 260.551 191.43 265.314 191.43 270.728V275.315C191.43 280.679 191.848 285.44 192.686 289.602C193.573 293.712 194.881 297.196 196.609 300.054C198.385 302.912 200.557 305.066 203.123 306.52C205.736 307.974 208.772 308.7 212.226 308.7C215.53 308.7 218.466 307.974 221.032 306.52C223.598 305.066 225.744 302.912 227.472 300.054C229.248 297.196 230.579 293.712 231.467 289.602C232.405 285.44 232.875 280.679 232.875 275.315ZM331.665 281.255H303.911L303.762 263.959H326.262C330.307 263.959 333.54 263.508 335.956 262.606C338.375 261.653 340.127 260.276 341.212 258.47C342.346 256.666 342.914 254.411 342.914 251.703C342.914 248.594 342.346 246.088 341.212 244.183C340.077 242.278 338.275 240.901 335.809 240.047C333.39 239.145 330.259 238.694 326.409 238.694H313.679V327.801H287.701V218.315H326.409C333.07 218.315 339.016 218.942 344.245 220.196C349.477 221.4 353.918 223.254 357.569 225.76C361.269 228.266 364.082 231.425 366.005 235.236C367.93 238.995 368.891 243.431 368.891 248.546C368.891 253.007 367.954 257.192 366.078 261.103C364.205 265.013 361.072 268.196 356.681 270.651C352.337 273.058 346.393 274.312 338.843 274.411L331.665 281.255ZM330.627 327.801H297.619L306.501 307.497H330.627C334.181 307.497 337.017 306.947 339.139 305.845C341.311 304.69 342.864 303.187 343.801 301.332C344.789 299.427 345.282 297.322 345.282 295.016C345.282 292.209 344.815 289.776 343.877 287.721C343.014 285.694 341.5 284.025 339.583 282.984C337.611 281.832 334.971 281.255 331.665 281.255H309.831L309.979 263.959H336.106L342.173 270.878C349.377 270.576 355.076 271.604 359.271 273.96C363.515 276.316 366.548 279.425 368.374 283.286C370.18 287.058 371.117 291.198 371.113 295.392C371.113 302.56 369.582 308.551 366.525 313.364C363.515 318.176 359 321.786 352.98 324.19C346.961 326.597 339.51 327.801 330.627 327.801Z" fill="black"/>
</svg>
